<svg xmlns="http://www.w3.org/2000/svg" viewBox="0 0 100 100">
  <defs>
    <radialGradient id="bloodGlow" cx="50%" cy="50%" r="50%">
      <stop offset="0%" stop-color="#ff2a4b" />
      <stop offset="70%" stop-color="#8b0000" />
      <stop offset="100%" stop-color="#140204" />
    </radialGradient>
    <linearGradient id="goldBorder" x1="0" y1="0" x2="1" y2="1">
      <stop offset="0%" stop-color="#f3e5ab" />
      <stop offset="50%" stop-color="#d4af37" />
      <stop offset="100%" stop-color="#997d25" />
    </linearGradient>
  </defs>
  <polygon points="50,5 92,28 92,72 50,95 8,72 8,28" fill="#0c0e14" stroke="url(#goldBorder)" stroke-width="3"/>
  <path d="M50 18 C50 18 30 45 30 60 C30 73 39 82 50 82 C61 82 70 73 70 60 C70 45 50 18 50 18 Z" fill="url(#bloodGlow)" />
  <path d="M42 45 L45 58 L40 50 Z" fill="#ffffff" opacity="0.8" />
  <path d="M58 45 L55 58 L60 50 Z" fill="#ffffff" opacity="0.8" />
  <circle cx="50" cy="50" r="42" fill="none" stroke="rgba(212,175,55,0.3)" stroke-width="1" stroke-dasharray="4,2"/>
</svg>
